<svg width="32" height="32" viewBox="0 0 32 32" fill="none" xmlns="http://www.w3.org/2000/svg">
<path d="M0 16C0 7.16344 7.16344 0 16 0C24.8366 0 32 7.16344 32 16C32 24.8366 24.8366 32 16 32C7.16344 32 0 24.8366 0 16Z" fill="#F6F7F8"/>
<path d="M20.8537 20.1463C20.9002 20.1927 20.937 20.2479 20.9622 20.3086C20.9873 20.3693 21.0003 20.4343 21.0003 20.5C21.0003 20.5657 20.9873 20.6308 20.9622 20.6915C20.937 20.7522 20.9002 20.8073 20.8537 20.8538C20.8073 20.9002 20.7521 20.9371 20.6914 20.9622C20.6307 20.9874 20.5657 21.0003 20.5 21.0003C20.4343 21.0003 20.3692 20.9874 20.3085 20.9622C20.2478 20.9371 20.1927 20.9002 20.1462 20.8538L16 16.7069L11.8537 20.8538C11.7599 20.9476 11.6327 21.0003 11.5 21.0003C11.3673 21.0003 11.24 20.9476 11.1462 20.8538C11.0524 20.76 10.9997 20.6327 10.9997 20.5C10.9997 20.3674 11.0524 20.2401 11.1462 20.1463L15.2931 16L11.1462 11.8538C11.0524 11.76 10.9997 11.6327 10.9997 11.5C10.9997 11.3674 11.0524 11.2401 11.1462 11.1463C11.24 11.0525 11.3673 10.9998 11.5 10.9998C11.6327 10.9998 11.7599 11.0525 11.8537 11.1463L16 15.2932L20.1462 11.1463C20.24 11.0525 20.3673 10.9998 20.5 10.9998C20.6327 10.9998 20.7599 11.0525 20.8537 11.1463C20.9475 11.2401 21.0003 11.3674 21.0003 11.5C21.0003 11.6327 20.9475 11.76 20.8537 11.8538L16.7068 16L20.8537 20.1463Z" fill="#191B1F"/>
</svg>
